<svg xmlns="http://www.w3.org/2000/svg" width="375" viewBox="0 0 375 375" height="375" version="1.0"><defs><clipPath id="a"><path d="M 0 4.433594 L 375 4.433594 L 375 370.433594 L 0 370.433594 Z M 0 4.433594"/></clipPath></defs><g clip-path="url(#a)"><path fill="#FFF" d="M 374.917969 9.917969 L 228.273438 9.195312 L 123.460938 116.929688 L 14.207031 7.132812 C 13.660156 6.523438 13.035156 6.007812 12.332031 5.585938 C 11.628906 5.164062 10.882812 4.859375 10.085938 4.664062 C 9.289062 4.472656 8.484375 4.402344 7.664062 4.453125 C 6.847656 4.503906 6.054688 4.675781 5.289062 4.96875 C 4.527344 5.257812 3.820312 5.660156 3.175781 6.164062 C 2.53125 6.667969 1.976562 7.257812 1.511719 7.933594 C 1.046875 8.605469 0.691406 9.335938 0.449219 10.117188 C 0.203125 10.898438 0.0820312 11.699219 0.0820312 12.515625 L 0.0820312 262.71875 L 123.5625 135.796875 L 176.03125 188.519531 L 4.039062 359.105469 L 2.085938 361.050781 L 2.085938 370.460938 L 374.8125 369.542969 L 194.769531 188.585938 Z M 13.316406 230.132812 L 13.316406 25.011719 L 114.230469 126.410156 Z M 132.789062 126.308594 L 233.839844 22.453125 L 342.9375 22.996094 L 185.445312 179.207031 Z M 343.046875 356.351562 L 24.808594 357.140625 L 185.371094 197.902344 Z M 343.046875 356.351562"/></g></svg>